<!DOCTYPE svg PUBLIC "-//W3C//DTD SVG 20010904//EN" "http://www.w3.org/TR/2001/REC-SVG-20010904/DTD/svg10.dtd">
<svg version="1.0" xmlns="http://www.w3.org/2000/svg" width="512px" height="512px" viewBox="0 0 5120 5120" preserveAspectRatio="xMidYMid meet">
<g id="layer1" fill="#ffffff" stroke="none">
 <path d="M2557 4924 c-144 -26 -294 -90 -374 -159 l-38 -33 60 -63 c33 -35 84 -91 113 -124 l52 -59 28 17 c107 70 233 101 382 94 163 -7 230 -45 230 -129 0 -84 -80 -122 -284 -133 -211 -12 -339 -60 -447 -167 -31 -32 -71 -84 -87 -116 l-29 -59 -53 154 c-29 84 -56 156 -61 159 -14 8 -34 -34 -145 -304 -59 -145 -110 -259 -114 -255 -4 4 -56 127 -115 273 -60 146 -113 271 -118 278 -7 9 -13 10 -20 3 -15 -15 -378 -1052 -371 -1062 9 -15 250 -11 261 4 5 6 41 103 78 214 l69 202 98 -201 c54 -110 98 -204 98 -209 0 -14 21 -21 33 -10 7 5 55 100 107 210 52 110 97 200 100 201 3 0 25 -57 49 -128 24 -70 46 -132 48 -139 3 -7 -13 -16 -39 -23 -75 -20 -201 -87 -270 -144 -127 -106 -223 -252 -264 -406 -25 -90 -25 -301 -1 -390 70 -263 291 -484 557 -556 91 -25 310 -25 400 0 142 39 285 132 384 249 l40 48 -121 121 -121 120 -41 -54 c-49 -65 -113 -113 -184 -138 -167 -59 -344 -21 -467 100 -171 167 -170 439 1 611 95 95 215 137 351 125 124 -11 213 -60 297 -163 l44 -54 119 118 c65 65 118 121 118 124 0 18 -140 154 -198 192 -91 60 -151 86 -251 106 l-85 18 -18 53 c-10 29 -16 55 -15 57 2 1 28 -10 58 -26 243 -132 658 -92 902 86 26 20 47 41 45 48 -2 6 -51 63 -110 124 l-106 113 -74 -36 c-104 -51 -184 -69 -308 -69 -171 -1 -260 44 -260 130 0 79 84 117 282 128 276 14 455 111 541 292 30 64 32 75 32 178 0 103 -2 114 -32 178 -65 136 -220 247 -395 282 -94 18 -256 18 -361 -1z"/>
 <path d="M4176 3382 c-3 -5 13 -177 34 -382 35 -331 38 -374 24 -384 -12 -9 -14 -28 -12 -86 3 -69 5 -75 26 -78 l22 -3 1 -292 c1 -161 4 -377 8 -482 l6 -190 45 0 45 0 3 107 3 108 260 197 c185 140 256 200 249 207 -7 7 -99 12 -255 14 l-245 4 0 160 c0 125 3 163 14 172 8 6 16 40 20 79 6 64 5 69 -14 74 -11 3 -20 10 -20 17 0 6 32 175 70 375 39 200 69 370 66 377 -4 11 -42 14 -175 14 -93 0 -172 -4 -175 -8z"/>
 <path d="M3447 2248 c-119 -185 -401 -357 -757 -462 -481 -142 -1062 -177 -1260 -76 -28 14 -46 18 -52 12 -7 -7 33 -89 117 -241 l127 -231 69 -41 c180 -107 382 -159 621 -159 250 0 431 30 672 111 160 54 191 56 202 14 12 -49 2 -57 -148 -109 -187 -64 -377 -100 -625 -117 -317 -21 -456 19 -766 219 l-139 90 -147 -152 c-515 -528 -840 -871 -834 -877 5 -4 647 42 1428 102 781 59 1430 108 1442 109 16 0 126 119 415 448 216 246 398 454 403 462 14 20 4 695 -10 709 -7 7 -126 -31 -345 -109 -184 -65 -336 -117 -338 -115 -2 2 -7 106 -10 231 -5 161 -10 229 -19 231 -6 2 -27 -20 -46 -49z"/>
 </g>
<g id="layer2" fill="#007ac5" stroke="none">
 <path d="M0 2560 l0 -2560 2560 0 2560 0 0 2560 0 2560 -2560 0 -2560 0 0 -2560z m2918 2345 c103 -21 228 -83 292 -145 31 -30 63 -76 83 -117 30 -64 32 -75 32 -178 0 -103 -2 -114 -32 -177 -81 -171 -249 -259 -521 -273 -153 -9 -215 -26 -264 -75 -45 -44 -50 -84 -18 -136 72 -116 384 -120 590 -8 l49 27 98 -103 c54 -56 100 -107 101 -111 6 -14 -36 -45 -118 -88 -263 -137 -620 -145 -832 -17 -32 19 -60 31 -63 27 -6 -11 35 -133 51 -150 7 -8 51 -22 97 -32 146 -29 294 -117 391 -232 l40 -48 -110 -110 -109 -109 -39 49 c-132 166 -356 217 -546 124 -71 -35 -177 -142 -212 -214 -59 -121 -59 -269 -2 -388 35 -72 141 -177 215 -213 120 -58 275 -59 395 -2 53 25 134 95 170 147 l19 27 109 -109 109 -109 -33 -43 c-81 -101 -231 -197 -370 -235 -90 -25 -309 -25 -400 0 -263 71 -466 274 -537 536 -24 90 -24 299 1 390 42 153 129 291 245 387 71 59 197 125 274 144 27 6 51 17 53 23 6 15 -102 321 -112 320 -11 -1 -14 -5 -127 -242 l-93 -193 -109 222 c-88 181 -110 220 -119 207 -6 -9 -43 -108 -81 -222 l-70 -206 -117 0 -118 0 35 98 c19 53 101 286 182 518 l148 420 94 -230 c128 -313 150 -361 160 -350 5 5 59 133 121 284 62 151 115 279 118 284 3 5 29 -60 59 -145 29 -84 57 -157 62 -162 5 -5 24 22 44 65 87 181 248 268 523 283 155 9 217 26 266 75 50 50 53 102 8 154 -44 49 -98 67 -220 73 -149 7 -276 -24 -381 -93 -26 -17 -26 -17 -70 32 -24 27 -71 77 -104 112 l-60 64 30 24 c43 35 150 89 222 113 147 50 357 64 501 36z m1592 -1542 c0 -5 -32 -170 -70 -368 -39 -198 -70 -368 -70 -378 0 -11 9 -21 20 -24 18 -5 19 -11 13 -62 -3 -31 -12 -61 -20 -66 -11 -8 -13 -47 -11 -185 l3 -175 237 -5 c130 -3 239 -8 242 -11 4 -3 -94 -81 -216 -174 -306 -230 -278 -199 -278 -317 l0 -98 -30 0 -30 0 -1 118 c-1 64 -4 279 -8 477 l-6 360 -22 10 c-20 9 -23 17 -23 69 0 41 5 62 15 70 14 10 12 47 -19 351 -20 187 -38 357 -41 378 l-5 37 160 0 c88 0 160 -3 160 -7z m-1002 -1545 c6 -6 138 36 343 109 l334 119 6 -46 c4 -25 8 -180 9 -345 l3 -300 -393 -447 c-217 -247 -399 -448 -405 -448 -10 0 -2716 -204 -2817 -212 l-38 -4 43 46 c96 101 640 665 774 801 l142 146 138 -89 c341 -220 473 -250 908 -207 176 18 354 59 525 121 95 34 130 60 130 95 0 27 -41 73 -65 73 -8 0 -82 -22 -163 -50 -239 -80 -420 -110 -670 -110 -236 0 -426 47 -607 151 l-70 40 -78 142 c-42 78 -98 179 -123 225 l-46 83 42 -21 c133 -68 502 -77 837 -19 520 88 884 241 1105 464 41 41 83 90 94 110 l19 36 7 -227 c4 -125 11 -231 16 -236z"/>
 </g>

</svg>